<svg version="1.1" id="Layer_1" xmlns="http://www.w3.org/2000/svg" x="0" y="0" viewBox="0 0 300 300" xml:space="preserve"><style>.st0{fill:#4845f5}</style><g id="_x37_hLUF7.tif"><path class="st0" d="M40.25 130.54V115.1c.54-3.66.99-7.34 1.63-10.98C53.17 39.73 116.47-.48 179.37 16.74c46.29 12.68 79.49 55.4 80.37 103.35.34 18.74-4.11 36.43-11.62 53.43-11.22 25.38-27.55 47.32-46.14 67.69-15.38 16.84-32.25 32.07-50.25 46.05h-3.43c-.1-.15-.16-.35-.29-.46-30.61-23.45-57.55-50.45-79.11-82.55-12.02-17.9-21.49-37.03-26.03-58.29-1.11-5.1-1.76-10.28-2.62-15.42zm27.44-7.98c0 45.3 36.89 82.33 82.04 82.34 45.63.01 82.51-36.79 82.59-82.4.08-45.21-36.87-82.27-82.06-82.31-45.64-.06-82.57 36.79-82.57 82.37z"/><path class="st0" d="M168.3 145.14c0-5.81-.09-11.63.05-17.44.05-2.03-.57-3.22-2.24-4.43-14.27-10.39-15.58-33.31-2.68-45.27 8.49-7.87 20.29-7.69 28.49.44 12.55 12.45 10.88 34.8-3.44 45.06-1.41 1.01-1.95 2-1.94 3.71.07 12.11.05 24.21.02 36.32-.01 4.02-1.93 6.96-5.57 8.57-3.58 1.58-7.18 1.05-9.7-1.84-1.55-1.79-2.72-4.46-2.87-6.82-.38-6.08-.12-12.2-.12-18.3zm-59.45-45.55H118v-3.64c0-6.19-.03-12.39.02-18.58.02-3.15 1.84-5.13 4.53-5.15 2.69-.02 4.56 1.97 4.58 5.1.05 7.32.02 14.64.02 22.15h9.15V80.34c0-1.24-.06-2.48.04-3.71.21-2.56 2.02-4.33 4.4-4.4 2.48-.08 4.56 1.74 4.66 4.42.14 4 .05 8 .05 12v22.87c0 9.33-4.28 14.33-13.72 15.76v3.04c0 10.86.02 21.72-.01 32.58-.01 5.82-3.82 9.94-9.11 9.96-5.29.01-9.15-4.12-9.16-9.91-.03-11.81-.01-23.61-.01-35.57-1.17-.25-2.25-.45-3.32-.72-5.99-1.52-10.3-6.64-10.36-12.8-.12-12.19-.07-24.39-.03-36.58.01-3.1 1.95-5.09 4.64-5.04 2.69.05 4.45 2.03 4.48 5.21.05 6.38.01 12.77.01 19.15-.01.91-.01 1.84-.01 2.99z"/></g></svg>