<?xml version="1.0" encoding="utf-8"?>
<!-- Generator: Adobe Illustrator 28.3.0, SVG Export Plug-In . SVG Version: 6.00 Build 0)  -->
<svg version="1.1" id="Layer_1" xmlns="http://www.w3.org/2000/svg" xmlns:xlink="http://www.w3.org/1999/xlink" x="0px" y="0px"
	 viewBox="0 0 300 300" style="enable-background:new 0 0 300 300;" xml:space="preserve">
<style type="text/css">
	.st0{fill:#4845F5;}
</style>
<g id="_x37_hLUF7.tif">
	<g>
		<path class="st0" d="M40.25,130.54c0-5.15,0-10.29,0-15.44c0.54-3.66,0.99-7.34,1.63-10.98c11.29-64.39,74.59-104.6,137.49-87.38
			c46.29,12.68,79.49,55.4,80.37,103.35c0.34,18.74-4.11,36.43-11.62,53.43c-11.22,25.38-27.55,47.32-46.14,67.69
			c-15.38,16.84-32.25,32.07-50.25,46.05c-1.14,0-2.29,0-3.43,0c-0.1-0.15-0.16-0.35-0.29-0.46
			c-30.61-23.45-57.55-50.45-79.11-82.55c-12.02-17.9-21.49-37.03-26.03-58.29C41.76,140.86,41.11,135.68,40.25,130.54z
			 M67.69,122.56c0,45.3,36.89,82.33,82.04,82.34c45.63,0.01,82.51-36.79,82.59-82.4c0.08-45.21-36.87-82.27-82.06-82.31
			C104.62,40.13,67.69,76.98,67.69,122.56z"/>
		<path class="st0" d="M168.3,145.14c0-5.81-0.09-11.63,0.05-17.44c0.05-2.03-0.57-3.22-2.24-4.43
			c-14.27-10.39-15.58-33.31-2.68-45.27c8.49-7.87,20.29-7.69,28.49,0.44c12.55,12.45,10.88,34.8-3.44,45.06
			c-1.41,1.01-1.95,2-1.94,3.71c0.07,12.11,0.05,24.21,0.02,36.32c-0.01,4.02-1.93,6.96-5.57,8.57c-3.58,1.58-7.18,1.05-9.7-1.84
			c-1.55-1.79-2.72-4.46-2.87-6.82C168.04,157.36,168.3,151.24,168.3,145.14z"/>
		<path class="st0" d="M108.85,99.59c3.22,0,5.97,0,9.15,0c0-1.25,0-2.45,0-3.64c0-6.19-0.03-12.39,0.02-18.58
			c0.02-3.15,1.84-5.13,4.53-5.15c2.69-0.02,4.56,1.97,4.58,5.1c0.05,7.32,0.02,14.64,0.02,22.15c3.07,0,5.96,0,9.15,0
			c0-6.42,0-12.78,0-19.13c0-1.24-0.06-2.48,0.04-3.71c0.21-2.56,2.02-4.33,4.4-4.4c2.48-0.08,4.56,1.74,4.66,4.42
			c0.14,4,0.05,8,0.05,12c0,7.62,0,15.24,0,22.87c0,9.33-4.28,14.33-13.72,15.76c0,0.98,0,2.01,0,3.04
			c0,10.86,0.02,21.72-0.01,32.58c-0.01,5.82-3.82,9.94-9.11,9.96c-5.29,0.01-9.15-4.12-9.16-9.91
			c-0.03-11.81-0.01-23.61-0.01-35.57c-1.17-0.25-2.25-0.45-3.32-0.72c-5.99-1.52-10.3-6.64-10.36-12.8
			c-0.12-12.19-0.07-24.39-0.03-36.58c0.01-3.1,1.95-5.09,4.64-5.04c2.69,0.05,4.45,2.03,4.48,5.21c0.05,6.38,0.01,12.77,0.01,19.15
			C108.85,97.51,108.85,98.44,108.85,99.59z"/>
	</g>
</g>
</svg>
